<svg width="200" height="114" viewBox="0 0 200 114" fill="none" xmlns="http://www.w3.org/2000/svg">
<path d="M171.255 46.7105C166.908 42.3627 161.127 39.9659 154.979 39.9659C148.83 39.9659 143.431 42.2141 139.143 46.2955C138.051 43.9843 135.962 41.9186 131.968 41.9186V52.8979L122.26 61.8148C121.984 56.3219 119.774 50.9001 115.591 46.7121C106.665 37.7888 92.1726 37.7468 83.1701 46.5942V37.6289C83.1701 37.6289 83.8807 27 74.8363 27V54.9006H74.8476L74.8363 54.912C74.8363 54.912 82.6759 58.5184 88.9344 52.5927C95.1944 46.6589 103.972 46.8833 109.691 52.5991C115.367 58.2713 115.41 67.4757 109.848 73.2044L109.822 73.24L109.695 73.3643C103.971 79.0866 94.6518 79.0866 88.9295 73.3643C89.2606 73.697 89.6062 74.0007 89.9583 74.2979C89.6046 74.0007 89.259 73.6922 88.9295 73.3627L75.6002 60.0334V60.0366L62.2757 46.7105C57.7874 42.2222 51.8988 39.9853 45.9972 39.9853C40.7837 39.9853 35.5767 41.7587 31.3339 45.2747V37.6273C31.3339 37.6273 32.0445 27 23 27V62.9809H23.0113C23.0081 68.8776 25.2466 74.7695 29.7285 79.2594C38.697 88.2248 53.2926 88.2312 62.2838 79.2513L70.4723 71.0564C70.4723 71.0564 62.6375 67.4466 56.3774 73.3772C50.1222 79.2998 41.3393 79.0866 35.6251 73.3659C32.7584 70.5072 31.3322 66.7392 31.3322 62.9809H31.3355V62.9357C31.3435 59.2565 32.7196 55.5854 35.4669 52.7607L35.8965 52.3343C41.6446 46.8833 50.7537 46.9706 56.3855 52.6088L69.7116 65.9301H69.7164L83.0377 79.2562C87.5276 83.7397 93.4146 85.9879 99.3113 85.983C105.176 85.983 111.043 83.7623 115.52 79.3224L131.967 64.21V86.0945C141.014 86.0945 140.302 75.4736 140.302 75.4736V56.5577L144.472 52.7235L144.597 52.6008C147.373 49.8244 151.064 48.303 154.979 48.303C158.903 48.2949 162.589 49.8244 165.368 52.6008C168.138 55.3739 169.668 59.0611 169.668 62.9809V76.5687C169.768 79.2804 170.745 86.0945 178 86.0945V62.9809C178 56.8339 175.603 51.0567 171.255 46.7121V46.7105Z" fill="currentColor"/>
<path d="M132.666 35.1094L132.671 35.1126L136.025 38.472L139.388 35.1126C141.239 33.2601 141.242 30.2512 139.391 28.3987L139.388 28.3906H139.383C137.531 26.5397 134.522 26.5397 132.666 28.3906C130.814 30.2479 130.814 33.2569 132.666 35.1077V35.1094Z" fill="currentColor"/>
<path style="mix-blend-mode:multiply" d="M83.1669 46.5926V37.6273C83.1669 37.6273 83.8807 27 74.8362 27V54.9006H75.0236L83.0296 46.7186C83.0732 46.675 83.12 46.6346 83.1669 46.5926Z" fill="url(#paint0_linear_7_24)"/>
<path style="mix-blend-mode:multiply" d="M131.967 64.2133V86.0945C141.015 86.0945 140.302 75.4737 140.302 75.4737V56.5577L138.952 57.7933L131.968 64.2133H131.967Z" fill="url(#paint1_linear_7_24)"/>
<path style="mix-blend-mode:multiply" d="M29.9174 46.5329C30.3745 46.092 30.8558 45.685 31.3339 45.286V37.6289C31.3339 37.6289 32.0445 27 23 27V62.9809H23.0242C23.0242 57.2231 25.1529 51.467 29.441 47.0239L29.9174 46.5329Z" fill="url(#paint2_linear_7_24)"/>
<path style="mix-blend-mode:multiply" d="M115.588 46.7105C106.662 37.7872 92.1694 37.7452 83.1669 46.5926C83.12 46.6362 83.0732 46.6766 83.0296 46.7186L75.0236 54.7246L74.8362 54.912C74.8362 54.912 82.6759 58.5184 88.9343 52.5927C95.1944 46.6589 103.972 46.8834 109.691 52.5991C115.367 58.2713 115.41 67.4757 109.848 73.2044L122.258 61.8132C121.982 56.3203 119.773 50.8985 115.59 46.7105H115.588Z" fill="url(#paint3_linear_7_24)"/>
<path style="mix-blend-mode:multiply" d="M138.771 46.6427C138.896 46.5248 139.015 46.415 139.141 46.2955C138.049 43.9843 135.961 41.9186 131.967 41.9186V52.8979L133.314 51.6575L138.773 46.6443L138.771 46.6427Z" fill="url(#paint4_linear_7_24)"/>
<defs>
<linearGradient id="paint0_linear_7_24" x1="79.008" y1="37.9018" x2="79.008" y2="53.6538" gradientUnits="userSpaceOnUse">
<stop stop-color="white"/>
<stop offset="1" stop-color="#999999"/>
</linearGradient>
<linearGradient id="paint1_linear_7_24" x1="137.006" y1="46.0161" x2="136.282" y2="66.2628" gradientUnits="userSpaceOnUse">
<stop stop-color="white"/>
<stop offset="0.42" stop-color="#999999"/>
<stop offset="1" stop-color="white"/>
</linearGradient>
<linearGradient id="paint2_linear_7_24" x1="26.9069" y1="39.1115" x2="25.6423" y2="53.5246" gradientUnits="userSpaceOnUse">
<stop stop-color="white"/>
<stop offset="1" stop-color="#999999"/>
</linearGradient>
<linearGradient id="paint3_linear_7_24" x1="98.1969" y1="55.8859" x2="104.433" y2="72.9428" gradientUnits="userSpaceOnUse">
<stop stop-color="white"/>
<stop offset="1" stop-color="#999999"/>
</linearGradient>
<linearGradient id="paint4_linear_7_24" x1="135.53" y1="48.3628" x2="135.706" y2="57.0632" gradientUnits="userSpaceOnUse">
<stop stop-color="white"/>
<stop offset="0.42" stop-color="#999999"/>
<stop offset="1" stop-color="white"/>
</linearGradient>
</defs>
</svg>
